/* XPM */
static char * R_xpm[] = {
"16 16 32 1",
" 	c None",
".	c #FFFFFF",
"+	c #000000",
"@	c #0B0B0B",
"#	c #373737",
"$	c #A6A6A6",
"%	c #A2A2A2",
"&	c #E6E6E6",
"*	c #5D5D5D",
"=	c #2F2F2F",
"-	c #EAEAEA",
";	c #070707",
">	c #131313",
",	c #E7E7E7",
"'	c #5A5A5A",
")	c #393939",
"!	c #E9E9E9",
"~	c #0C0C0C",
"{	c #B5B5B5",
"]	c #F8F8F8",
"^	c #060606",
"/	c #CDCDCD",
"(	c #8A8A8A",
"_	c #FEFEFE",
":	c #FAFAFA",
"<	c #292929",
"[	c #989898",
"}	c #BBBBBB",
"|	c #0F0F0F",
"1	c #E5E5E5",
"2	c #535353",
"3	c #515151",
"................",
"................",
"...++++@#$......",
"...+++++++%.....",
"...++..&*+=.....",
"...++...-+;.....",
"...++...-+>.....",
"...++..,*+'.....",
"...++++++)!.....",
"...+++++~{......",
"...++.]$;^/.....",
"...++...(+#_....",
"...++...:<+[....",
"...++....}+|1...",
"...++.....2+3...",
"................"};
