/* XPM */
static char * squaretube_xpm[] = {
"16 16 39 1",
" 	c None",
".	c #454545",
"+	c #6F6F6F",
"@	c #5A5A5A",
"#	c #626262",
"$	c #5F5F5F",
"%	c #8D8D8D",
"&	c #8E8E8E",
"*	c #5D5D5D",
"=	c #7F7F7F",
"-	c #525252",
";	c #565656",
">	c #8A8A8A",
",	c #5E5E5E",
"'	c #6D6D6D",
")	c #464646",
"!	c #7D7D7D",
"~	c #7B7B7B",
"{	c #4A4A4A",
"]	c #888888",
"^	c #868686",
"/	c #606060",
"(	c #8C8C8C",
"_	c #5B5B5B",
":	c #8B8B8B",
"<	c #616161",
"[	c #515151",
"}	c #4C4C4C",
"|	c #414141",
"1	c #828282",
"2	c #636363",
"3	c #848484",
"4	c #797979",
"5	c #434343",
"6	c #717171",
"7	c #858585",
"8	c #575757",
"9	c #676767",
"0	c #2A2A2A",
"                ",
"      .+@#      ",
"     $%&*&=-    ",
"   ;>&&&,&&&'   ",
"  )!&&&&$&&&~{  ",
"  ]#-^&&/&(;#&  ",
"  ]&&_;:<;[>&&  ",
"  ]&&&]}|1&&&&  ",
"  ]&&&&&2&&&&&  ",
"  ]&&&&&2&&&&&  ",
"  ]&&&&&2&&&&&  ",
"  3&&&&&2&&&&&  ",
"   2%&&&2&&&4}  ",
"    56&&2&78    ",
"      -1#9      ",
"        0       "};
