/* XPM */
static char * angle_xpm[] = {
"16 16 22 1",
" 	c None",
".	c #454545",
"+	c #6F6F6F",
"@	c #5F5F5F",
"#	c #8D8D8D",
"$	c #8E8E8E",
"%	c #565656",
"&	c #8A8A8A",
"*	c #464646",
"=	c #7D7D7D",
"-	c #888888",
";	c #626262",
">	c #525252",
",	c #868686",
"'	c #5B5B5B",
")	c #8B8B8B",
"!	c #4C4C4C",
"~	c #848484",
"{	c #636363",
"]	c #434343",
"^	c #717171",
"/	c #828282",
"                ",
"      .+        ",
"     @#$        ",
"   %&$$$        ",
"  *=$$$$        ",
"  -;>,$$        ",
"  -$$'%)        ",
"  -$$$-!        ",
"  -$$$$$        ",
"  -$$$$$        ",
"  -$$$$$        ",
"  ~$$$$$        ",
"   {#$$$        ",
"    ]^$$        ",
"      >/        ",
"                "};
